<svg version="1.1" id="Layer_1" xmlns="http://www.w3.org/2000/svg" xmlns:xlink="http://www.w3.org/1999/xlink" x="0px" y="0px"
	 width="100%" viewBox="0 0 1024 1024" enable-background="new 0 0 1024 1024" xml:space="preserve">
<path fill="green" opacity="1.000000" stroke="none" 
	d="
M475.649750,720.573975 
	C430.575073,710.507874 391.959351,689.597351 361.031433,655.709717 
	C334.844604,627.016907 316.926697,593.629700 308.404053,555.544128 
	C305.896179,544.337036 304.366791,532.931763 304.696655,521.362244 
	C305.011963,510.303131 318.173615,497.616608 329.233124,497.669891 
	C332.220947,497.684265 334.409790,498.947876 335.952667,501.274719 
	C337.445282,503.525757 336.895264,505.951996 335.143982,507.712128 
	C329.577057,513.306885 333.235291,520.920532 340.811432,523.628967 
	C352.774292,527.905701 365.173096,530.325867 377.644287,532.447388 
	C405.729370,537.225159 434.061554,539.336914 462.488129,540.832214 
	C492.469482,542.409180 522.463440,542.526062 552.418152,541.513794 
	C594.336731,540.097229 636.115234,536.714905 677.059265,526.737305 
	C681.754822,525.593018 686.433289,524.269348 690.380615,521.299561 
	C695.429138,517.501221 695.920837,513.985107 692.086792,509.040771 
	C690.300171,506.736786 688.427246,504.552582 690.287048,501.444550 
	C692.258362,498.150238 695.313660,497.197510 698.884827,497.763336 
	C708.150269,499.231445 721.906982,509.860443 721.593323,523.181274 
	C720.798340,556.938049 710.196655,587.426392 693.933228,616.464600 
	C672.054016,655.529663 640.519592,684.367371 600.485474,703.720886 
	C570.068359,718.425293 537.765747,725.852600 503.762665,724.140686 
	C494.477081,723.673218 485.194611,722.642151 475.649750,720.573975 
z"/>
<path fill="green" opacity="1.000000" stroke="none" 
	d="
M548.933594,462.937073 
	C544.070129,468.880676 539.464111,474.577667 534.789734,480.217987 
	C533.644653,481.599670 532.462280,483.537476 530.446838,483.133301 
	C527.993347,482.641235 528.145386,480.077148 527.843018,478.213287 
	C521.498047,439.102814 534.503235,407.753021 569.203125,384.136200 
	C586.225159,372.550903 605.592163,367.492432 625.988770,365.506866 
	C637.137817,364.421570 648.282288,364.935669 659.416687,364.275543 
	C668.600342,363.731018 675.817810,370.068939 676.234253,379.069611 
	C677.866882,414.345917 671.529846,447.486359 648.591919,475.681030 
	C623.764526,506.198212 588.902161,515.421326 553.603699,504.154999 
	C548.682495,502.584351 547.961853,500.610962 551.301758,496.545319 
	C562.924561,482.396576 574.239502,467.967224 587.565308,455.304443 
	C589.338013,453.619995 591.465149,452.825043 593.574219,451.869415 
	C598.434570,449.667328 601.238892,445.852753 601.296021,440.576569 
	C601.352295,435.389282 598.950806,431.344513 594.200012,428.815155 
	C589.214844,426.160980 584.744202,427.350861 580.807251,430.749634 
	C569.438049,440.564667 559.685364,452.000702 548.933594,462.937073 
z"/>
<path fill="green" opacity="1.000000" stroke="none" 
	d="
M435.379028,427.418945 
	C425.122498,430.944275 421.197449,439.067444 425.709412,446.678925 
	C426.931000,448.739655 428.463226,450.579742 430.801666,451.256775 
	C436.323547,452.855469 440.374878,456.441895 444.099030,460.563324 
	C454.937592,472.558167 465.365753,484.894440 475.340118,497.621216 
	C478.346649,501.457397 476.128906,503.025543 472.864410,504.041626 
	C453.544434,510.055267 434.148743,510.906403 415.128357,503.239990 
	C385.317566,491.224365 368.221497,467.566345 357.558960,438.468109 
	C350.521027,419.261414 348.790192,399.249725 349.757507,378.954376 
	C350.153992,370.635437 354.963531,365.180206 363.097992,364.883759 
	C389.521942,363.920837 415.854187,364.682861 440.552582,375.665894 
	C467.384338,387.597626 486.683563,406.945801 496.008820,435.237579 
	C500.581116,449.109375 500.254944,463.436249 498.472473,477.746857 
	C498.193329,479.987885 497.858063,482.837952 495.192688,483.428406 
	C492.599304,484.002869 491.691895,481.272705 490.500122,479.594116 
	C478.365753,462.503571 463.121277,448.249817 448.425995,433.508453 
	C445.023987,430.095795 441.117645,427.067200 435.379028,427.418945 
z"/>
<path fill="green" opacity="1.000000" stroke="none" 
	d="
M475.959412,351.752106 
	C475.389954,325.459625 488.539337,306.532715 506.828827,290.252319 
	C510.555176,286.935242 514.808777,286.789978 518.677551,289.940094 
	C541.061157,308.165588 557.868958,338.490570 546.348877,369.790497 
	C542.442322,380.404541 536.271118,389.279297 526.092834,394.792389 
	C514.845093,400.884705 504.417847,399.694916 494.802277,391.141052 
	C483.172302,380.795197 477.016479,367.720367 475.959412,351.752106 
z"/>
</svg>